# xmcd
#
# Track frame offsets: 
#        150
#        11769
#        38541
#        57937
#        82309
#        102175
#        121903
#        139224
#        163017
#        184824
#        212499
#        235248
#        260072
#        283886
#        304737
#        326711
#
# Disc length: 4723 seconds
#
# Revision: 0
# Processed by: cddbd v1.5.1PL0 Copyright (c) Steve Scherf et al.
# Submitted via: ExactAudioCopy v0.95a5
#
DISCID=ea127110
DTITLE=Adriano Canzian - Pornography
DYEAR=2005
DGENRE=Techno
TTITLE0=You Know
TTITLE1=Blow Job
TTITLE2=Macho Boy
TTITLE3=I Want Your Sex
TTITLE4=Lick My Ass
TTITLE5=A Very Hard Thing
TTITLE6=Acid And Perverse Dream
TTITLE7=My Boyfriend Is Very Sexy
TTITLE8=You Excites Me So Much
TTITLE9=Go To Sleep, Bitch !
TTITLE10=Aytu Hates This !
TTITLE11=Sexy Military March (1234 Fuck ! Uuh !)
TTITLE12=I Hate Him
TTITLE13=Dirty Convulsions
TTITLE14=She Want It
TTITLE15=Pornography
EXTD=
EXTT0=
EXTT1=
EXTT2=
EXTT3=
EXTT4=
EXTT5=
EXTT6=
EXTT7=
EXTT8=
EXTT9=
EXTT10=
EXTT11=
EXTT12=
EXTT13=
EXTT14=
EXTT15=
PLAYORDER=
